<?xml version="1.0" standalone="no"?>
<!DOCTYPE svg PUBLIC "-//W3C//DTD SVG 20010904//EN"
 "http://www.w3.org/TR/2001/REC-SVG-20010904/DTD/svg10.dtd">
<svg version="1.0" xmlns="http://www.w3.org/2000/svg"
 width="736.000000pt" height="552.000000pt" viewBox="0 0 736.000000 552.000000"
 preserveAspectRatio="xMidYMid meet">

<g transform="translate(0.000000,552.000000) scale(0.100000,-0.100000)"
fill="#000000" stroke="none">
<path d="M4355 3696 c-113 -36 -186 -80 -274 -166 -65 -62 -95 -106 -137 -197
-19 -43 -46 -99 -60 -125 -13 -27 -21 -48 -17 -48 5 0 4 -4 -2 -8 -14 -10 -32
-44 -49 -89 -7 -21 -29 -72 -49 -115 -32 -69 -34 -78 -21 -95 9 -10 13 -12 9
-5 -4 7 0 12 9 12 9 0 15 3 15 8 -3 19 2 23 16 12 8 -7 13 -16 10 -20 -3 -4
10 -8 28 -8 36 0 117 -30 117 -43 0 -5 9 -9 20 -9 11 0 20 -6 20 -14 0 -9 7
-12 20 -9 11 3 20 10 20 15 0 5 5 6 11 3 5 -4 8 -12 6 -18 -2 -7 3 -17 11 -23
13 -9 11 -14 -9 -34 -13 -13 -19 -20 -12 -16 9 5 10 0 2 -24 -6 -16 -15 -30
-20 -30 -5 0 -8 -3 -8 -7 1 -5 0 -10 -1 -13 -1 -3 -3 -13 -5 -22 -2 -10 -26
-67 -54 -127 -28 -60 -51 -112 -51 -114 0 -11 -117 -244 -141 -282 -37 -57
-129 -145 -194 -184 -127 -77 -274 -109 -421 -91 -125 16 -129 20 -48 65 104
57 208 168 268 283 26 52 45 96 42 99 -3 4 -6 2 -6 -3 0 -23 -82 -56 -153 -61
-80 -6 -130 11 -173 59 -44 47 -508 1023 -502 1055 3 16 17 18 156 21 141 2
183 -2 236 -24 36 -14 7 15 -37 38 -38 20 -61 22 -224 26 -215 5 -214 6 -165
-91 99 -199 195 -426 189 -448 -3 -10 -2 -18 2 -17 21 2 30 -6 42 -34 18 -46
17 -51 -8 -53 -14 -1 -19 3 -16 12 4 10 9 11 19 2 18 -15 18 -9 -2 29 -17 35
-29 43 -20 15 3 -10 1 -25 -4 -33 -7 -10 -10 -11 -10 -2 0 10 -7 9 -30 -3 -18
-9 -27 -21 -24 -29 3 -9 -6 -17 -25 -24 -17 -6 -31 -7 -31 -2 0 5 -13 4 -30
-1 -16 -6 -30 -14 -30 -18 0 -5 -20 -7 -45 -6 -25 0 -45 0 -45 -1 0 -2 5 -15
10 -29 8 -21 7 -26 -2 -22 -7 2 -12 9 -11 14 1 5 -8 10 -20 10 -21 2 -22 1 -3
-13 18 -12 15 -19 -6 -15 -4 0 -2 -10 4 -24 6 -14 15 -25 19 -25 5 0 5 -7 2
-17 -5 -12 -3 -14 7 -8 9 5 11 4 6 -4 -4 -6 2 -25 14 -41 12 -17 23 -36 24
-43 5 -28 18 -57 25 -57 4 0 8 -6 8 -13 0 -16 91 -206 136 -282 108 -184 321
-310 547 -322 194 -10 358 53 496 191 89 90 123 149 267 466 41 91 154 327
250 526 212 438 337 700 337 706 0 3 -11 17 -25 32 -20 22 -32 26 -77 25 -29
0 -84 -11 -123 -23z m-598 -818 c-3 -8 -6 -5 -6 6 -1 11 2 17 5 13 3 -3 4 -12
1 -19z m-1287 -288 c0 -5 -5 -10 -11 -10 -5 0 -7 5 -4 10 3 6 8 10 11 10 2 0
4 -4 4 -10z"/>
<path d="M5290 3706 c-60 -16 -190 -82 -248 -126 -50 -38 -133 -134 -160 -187
-75 -141 -102 -198 -102 -213 0 -10 -7 -23 -14 -30 -8 -6 -20 -28 -27 -48 -6
-20 -18 -47 -26 -60 -7 -12 -11 -27 -8 -32 3 -6 2 -10 -2 -10 -11 0 -34 -60
-27 -71 3 -5 -2 -19 -10 -31 -11 -15 -16 -18 -16 -8 0 8 -7 2 -15 -14 -9 -17
-14 -37 -12 -45 3 -10 5 -7 6 7 1 27 6 27 110 -3 78 -23 106 -39 96 -56 -3 -3
6 -4 19 -2 13 3 30 -2 38 -11 9 -8 27 -18 41 -22 21 -5 26 -11 23 -33 -6 -46
-27 -80 -48 -76 -10 2 -16 0 -13 -6 4 -5 11 -7 16 -4 13 8 12 3 -10 -47 -115
-266 -199 -438 -246 -503 -132 -185 -345 -286 -573 -272 -60 3 -82 2 -79 -7 5
-16 50 -23 158 -25 229 -3 428 101 551 286 25 37 95 174 156 303 61 129 170
359 242 510 253 526 362 755 370 777 7 16 3 28 -13 47 -19 22 -30 26 -77 25
-30 0 -75 -6 -100 -13z m-580 -790 c0 -2 -7 -9 -15 -16 -13 -11 -14 -10 -9 4
5 14 24 23 24 12z m300 -56 c0 -5 -5 -10 -11 -10 -5 0 -7 5 -4 10 3 6 8 10 11
10 2 0 4 -4 4 -10z m-39 -71 c-5 -13 -10 -19 -10 -12 -1 15 10 45 15 40 3 -2
0 -15 -5 -28z m27 1 c-7 -10 -14 -17 -17 -15 -4 4 18 35 25 35 2 0 -1 -9 -8
-20z"/>
<path d="M3311 3495 c63 -82 100 -149 106 -192 6 -40 -23 -116 -40 -106 -6 3
-7 1 -4 -4 9 -14 -20 -83 -34 -83 -5 0 -7 -5 -4 -10 3 -6 -1 -13 -10 -16 -9
-4 -13 -13 -11 -23 3 -9 0 -23 -7 -31 -17 -22 -72 -50 -96 -50 -14 0 -19 -5
-14 -16 4 -11 9 -12 16 -5 13 13 30 15 23 2 -4 -5 -1 -11 5 -13 8 -3 5 -10 -6
-22 -18 -18 -20 -16 -47 35 -16 30 -26 45 -22 34 3 -11 7 -26 7 -32 0 -7 4
-13 9 -13 5 0 6 -4 3 -10 -3 -5 -1 -10 4 -10 6 0 11 -6 11 -14 0 -7 7 -19 15
-26 8 -7 12 -16 10 -21 -6 -9 26 -29 48 -29 21 0 197 372 197 416 0 66 -92
211 -175 276 -25 19 -22 13 16 -37z"/>
<path d="M3130 3053 c0 -6 8 -17 18 -24 16 -13 16 -13 2 6 -8 11 -16 22 -17
24 -2 2 -3 0 -3 -6z"/>
<path d="M3300 3051 c0 -7 -4 -10 -8 -7 -5 3 -9 -2 -9 -10 0 -13 2 -13 16 0 8
9 12 19 8 22 -4 4 -7 2 -7 -5z"/>
<path d="M3175 3030 c-3 -6 1 -7 9 -4 18 7 21 14 7 14 -6 0 -13 -4 -16 -10z"/>
<path d="M3210 2940 c0 -5 5 -10 10 -10 6 0 10 5 10 10 0 6 -4 10 -10 10 -5 0
-10 -4 -10 -10z"/>
<path d="M3720 2826 c0 -2 8 -10 18 -17 15 -13 16 -12 3 4 -13 16 -21 21 -21
13z"/>
<path d="M4600 2775 c0 -8 2 -15 4 -15 2 0 6 7 10 15 3 8 1 15 -4 15 -6 0 -10
-7 -10 -15z"/>
<path d="M4920 2709 c0 -5 5 -7 10 -4 6 3 10 8 10 11 0 2 -4 4 -10 4 -5 0 -10
-5 -10 -11z"/>
<path d="M4005 2679 c-4 -6 -4 -13 -1 -16 3 -4 6 -1 6 6 0 7 5 9 10 6 6 -3 10
-1 10 4 0 14 -17 14 -25 0z"/>
</g>
</svg>
